<svg width="1054" height="444" viewBox="0 0 1054 444" fill="none" xmlns="http://www.w3.org/2000/svg">
<path d="M583.535 104.515L533.07 0H602.366L637.013 84.2134L672.791 0H740.204L690.492 104.515L743.593 214.669H674.298L637.013 123.688L598.6 214.669H528.927L583.535 104.515Z" fill="#DBFB60"/>
<path d="M572.237 104.515L521.772 0H591.067L625.715 84.2134L661.493 0H728.906L679.193 104.515L732.295 214.669H662.999L625.715 123.688L587.301 214.669H517.629L572.237 104.515Z" fill="#6D9EF8"/>
<path d="M189.332 127.824V214.293H126.439V0H190.085L246.953 86.4691C255.489 99.2515 262.017 110.029 266.536 118.801H267.666V0H330.183V214.293H266.16L207.786 124.064L190.838 98.4996H189.709L189.332 127.824Z" fill="black"/>
<path d="M354.153 0H510.445V45.1143H421.943V84.2134H496.511V124.816H421.943V168.427H510.069V214.293H354.153V0Z" fill="black"/>
<path d="M562.917 104.515L512.452 0H581.748L616.396 84.2134L652.173 0H719.586L669.874 104.515L722.976 214.669H653.68L616.396 123.688L577.982 214.669H508.309L562.917 104.515Z" fill="black"/>
<path d="M842.513 214.293H774.724V46.9941H714.09V0H903.147V46.9941H842.513V214.293Z" fill="black"/>
<path d="M281.326 439.865H218.056L213.16 321.815C212.406 298.506 211.528 280.837 210.523 268.806H209.394C206.381 278.33 202.866 293.118 198.849 313.168L196.966 322.567L170.98 439.865H107.71L85.8664 334.222L82.1004 315.424C76.8279 292.115 73.1873 276.576 71.1788 268.806H70.0489C69.0447 281.338 68.1659 301.765 67.4127 330.086C67.1616 331.841 67.0361 334.598 67.0361 338.357L63.6466 439.865H0L9.03857 225.572H116.748L135.202 318.056L139.721 342.869C141.73 335.099 143.613 326.452 145.37 316.928L162.694 225.572H272.664L281.326 439.865Z" fill="black"/>
<path d="M427.54 392.87H365.024L353.725 439.865H284.43L353.725 225.572H442.228L508.511 439.865H438.839L427.54 392.87ZM395.905 271.814L373.686 351.14H418.502L397.412 271.814H395.905Z" fill="black"/>
<path d="M611.628 439.865H543.838V272.566H483.205V225.572H672.262V272.566H611.628V439.865Z" fill="black"/>
<path d="M845.474 432.721C836.185 436.732 825.389 439.614 813.086 441.368C800.784 443.123 789.36 444 778.815 444C744.669 444 717.93 435.102 698.598 417.307C679.265 399.512 669.599 372.193 669.599 335.35C669.599 297.754 679.767 269.683 700.104 251.136C720.441 232.339 749.063 222.94 785.97 222.94C803.545 222.94 821.874 225.321 840.955 230.083C840.955 235.096 840.453 242.615 839.449 252.64C838.444 262.415 837.44 269.307 836.436 273.317H812.71C795.386 273.317 781.702 273.693 771.659 274.445C761.868 274.947 755.967 276.074 753.959 277.829C750.193 281.338 747.305 288.481 745.297 299.258C743.288 309.785 742.284 319.936 742.284 329.71C742.284 346.754 744.418 359.912 748.686 369.185C752.954 378.208 758.353 384.223 764.88 387.231C771.157 390.239 781.577 391.743 796.139 391.743C807.688 391.743 822.752 390.74 841.332 388.735L845.474 432.721Z" fill="black"/>
<path d="M859.294 225.572H927.46V304.146H985.834V225.572H1054V439.865H985.834V347.38H927.46V439.865H859.294V225.572Z" fill="black"/>
</svg>
