<svg width="668" height="496" viewBox="0 0 668 496" fill="none" xmlns="http://www.w3.org/2000/svg">
<path d="M425.672 71.8067C425.672 111.464 383.594 143.613 331.69 143.613C279.785 143.613 237.708 111.464 237.708 71.8067C237.708 32.149 279.785 0 331.69 0C383.594 0 425.672 32.149 425.672 71.8067Z" fill="#1B1B1B"/>
<path d="M391.182 12.1184V45.2757L348.219 73.1851L391.182 99.9017V132.82L317.906 84.635V61.4965L391.182 12.1184Z" fill="#F1F1F2"/>
<path d="M273.391 133.178V100.021L316.354 72.1116L273.391 45.3949V12.4762L346.667 60.6616V83.8001L273.391 133.178Z" fill="#6D9EF8"/>
<path d="M293.082 133.775V100.617L336.046 72.708L293.082 45.9913V13.0726L366.359 61.258V84.3965L293.082 133.775Z" fill="#DBFB60"/>
<path d="M369.831 280.597L337.847 214.282H381.765L403.724 267.716L426.399 214.282H469.124L437.617 280.597L471.272 350.49H427.354L403.724 292.763L379.378 350.49H335.221L369.831 280.597Z" fill="#DBFB60"/>
<path d="M362.67 280.597L330.686 214.282H374.604L396.563 267.716L419.238 214.282H461.963L430.457 280.597L464.111 350.49H420.193L396.563 292.763L372.218 350.49H328.061L362.67 280.597Z" fill="#6D9EF8"/>
<path d="M119.994 295.387V350.251H80.1337V214.282H120.471L156.513 269.147C161.923 277.257 166.06 284.096 168.924 289.662H169.64V214.282H209.262V350.251H168.686L131.69 293.001L120.949 276.78H120.233L119.994 295.387Z" fill="black"/>
<path d="M224.454 214.282H323.508V242.907H267.417V267.716H314.677V293.478H267.417V321.149H323.269V350.251H224.454V214.282Z" fill="black"/>
<path d="M356.764 280.597L324.78 214.282H368.698L390.657 267.716L413.332 214.282H456.056L424.55 280.597L458.205 350.49H414.287L390.657 292.763L366.311 350.49H322.154L356.764 280.597Z" fill="black"/>
<path d="M533.965 350.251H491.001V244.1H452.573V214.282H572.393V244.1H533.965V350.251Z" fill="black"/>
<path d="M178.297 493.376H138.198L135.096 418.474C134.618 403.684 134.061 392.473 133.425 384.84H132.709C130.799 390.883 128.571 400.265 126.026 412.988L124.832 418.951L108.363 493.376H68.2638L54.4201 426.346L52.0333 414.419C48.6917 399.629 46.3844 389.769 45.1114 384.84H44.3953C43.7589 392.791 43.2019 405.752 42.7246 423.722C42.5654 424.835 42.4859 426.584 42.4859 428.97L40.3377 493.376H0L5.72843 357.407H73.9922L85.6878 416.089L88.552 431.832C89.825 426.902 91.0184 421.416 92.1323 415.373L103.112 357.407H172.808L178.297 493.376Z" fill="black"/>
<path d="M270.965 463.558H231.343L224.183 493.376H180.265L224.183 357.407H280.274L322.282 493.376H278.125L270.965 463.558ZM250.915 386.748L236.833 437.08H265.236L251.87 386.748H250.915Z" fill="black"/>
<path d="M387.635 493.376H344.672V387.225H306.244V357.407H426.063V387.225H387.635V493.376Z" fill="black"/>
<path d="M535.841 488.844C529.954 491.388 523.112 493.217 515.315 494.33C507.518 495.443 500.277 496 493.594 496C471.954 496 455.007 490.355 442.754 479.064C430.502 467.773 424.376 450.439 424.376 427.061C424.376 403.207 430.82 385.396 443.709 373.628C456.598 361.701 474.738 355.738 498.129 355.738C509.268 355.738 520.884 357.248 532.977 360.27C532.977 363.45 532.659 368.221 532.023 374.582C531.386 380.784 530.75 385.158 530.113 387.702H515.076C504.096 387.702 495.424 387.941 489.059 388.418C482.853 388.736 479.114 389.451 477.841 390.565C475.454 392.791 473.624 397.323 472.351 404.161C471.078 410.841 470.442 417.281 470.442 423.483C470.442 434.297 471.794 442.646 474.499 448.53C477.205 454.255 480.626 458.072 484.763 459.98C488.741 461.889 495.345 462.843 504.574 462.843C511.893 462.843 521.441 462.207 533.216 460.934L535.841 488.844Z" fill="black"/>
<path d="M544.6 357.407H587.802V407.263H624.798V357.407H668V493.376H624.798V434.695H587.802V493.376H544.6V357.407Z" fill="black"/>
</svg>
