<svg width="520" height="398" viewBox="0 0 520 398" fill="none" xmlns="http://www.w3.org/2000/svg">
<path d="M520 199C520 308.905 403.594 398 260 398C116.406 398 0 308.905 0 199C0 89.0953 116.406 0 260 0C403.594 0 520 89.0953 520 199Z" fill="#1B1B1B"/>
<path d="M424.584 33.5841V125.474L305.727 202.82L424.584 276.86V368.089L221.867 234.552V170.427L424.584 33.5841Z" fill="#F1F1F2"/>
<path d="M98.7175 369.081V277.191L217.575 199.845L98.7175 125.804V34.5757L301.435 168.113V232.238L98.7175 369.081Z" fill="#6D9EF8"/>
<path d="M153.194 370.733V278.844L272.051 201.498L153.194 127.457V36.2283L355.911 169.766V233.89L153.194 370.733Z" fill="#DBFB60"/>
</svg>
